<svg xmlns="http://www.w3.org/2000/svg" xmlns:xlink="http://www.w3.org/1999/xlink" width="500" zoomAndPan="magnify" viewBox="0 0 375 374.999991" height="500" preserveAspectRatio="xMidYMid meet" version="1.0"><defs><clipPath id="991b12bd86"><path d="M 37.5 18 L 170 18 L 170 356.847656 L 37.5 356.847656 Z M 37.5 18 " clip-rule="nonzero"/></clipPath><clipPath id="39ccef7a30"><path d="M 139 28 L 342.75 28 L 342.75 341 L 139 341 Z M 139 28 " clip-rule="nonzero"/></clipPath><clipPath id="88e13db0f2"><path d="M 37.5 64.625 L 105 64.625 L 105 155.375 L 37.5 155.375 Z M 37.5 64.625 " clip-rule="nonzero"/></clipPath></defs><g clip-path="url(#991b12bd86)"><path fill="#0cc0df" d="M 169.996094 319.710938 L 105.214844 356.984375 L 37.523438 318.039062 L 37.523438 56.960938 L 105.214844 18.015625 L 105.214844 282.453125 Z M 169.996094 319.710938 " fill-opacity="1" fill-rule="nonzero"/></g><g clip-path="url(#39ccef7a30)"><path fill="#0097b2" d="M 342.902344 145.359375 L 342.902344 220.867188 L 271.464844 261.972656 L 342.71875 302.953125 L 277.9375 340.230469 L 141.921875 261.972656 L 278.976562 183.101562 L 207.007812 141.710938 L 207.007812 182.066406 L 139.316406 221.011719 L 139.316406 28.214844 Z M 342.902344 145.359375 " fill-opacity="1" fill-rule="nonzero"/></g><g clip-path="url(#88e13db0f2)"><path fill="#100f0d" d="M 76.070312 88.933594 L 76.070312 64.625 L 66.429688 64.625 L 66.429688 88.933594 C 66.429688 89.828125 65.707031 90.554688 64.820312 90.554688 L 37.5 90.554688 L 37.5 100.277344 L 64.820312 100.277344 C 65.707031 100.277344 66.429688 101.007812 66.429688 101.898438 L 66.429688 155.375 L 76.070312 155.375 L 76.070312 101.898438 C 76.070312 101.007812 76.792969 100.277344 77.679688 100.277344 L 105 100.277344 L 105 90.554688 L 77.679688 90.554688 C 76.792969 90.554688 76.070312 89.828125 76.070312 88.933594 " fill-opacity="1" fill-rule="nonzero"/></g></svg>