<svg xmlns="http://www.w3.org/2000/svg" viewBox="0 0 720 520" width="720" height="520" role="img" aria-label="Illustration of worship music">
  <defs>
    <linearGradient id="bg" x1="0%" y1="0%" x2="100%" y2="100%">
      <stop offset="0%" stop-color="#0ea5e9" stop-opacity="0.18" />
      <stop offset="100%" stop-color="#22d3ee" stop-opacity="0.12" />
    </linearGradient>
    <linearGradient id="disc" x1="0%" y1="0%" x2="100%" y2="0%">
      <stop offset="0%" stop-color="#a855f7" />
      <stop offset="100%" stop-color="#22d3ee" />
    </linearGradient>
  </defs>
  <rect width="720" height="520" rx="28" fill="#0b1729" />
  <rect x="18" y="18" width="684" height="484" rx="24" fill="url(#bg)" opacity="0.7" />
  <rect x="42" y="70" width="636" height="380" rx="26" fill="#0f1b30" stroke="#22d3ee" stroke-opacity="0.18" />
  <g fill="none" stroke="#38bdf8" stroke-opacity="0.3" stroke-width="2">
    <path d="M120 230c60-40 120-20 180 10s120 70 180 50 120-90 180-120" />
    <path d="M120 270c60-30 120-8 180 22s120 68 180 56 120-74 180-94" />
    <path d="M120 310c60-18 120 10 180 40s120 70 180 66 120-62 180-72" />
  </g>
  <g fill="#0ea5e9" fill-opacity="0.1" stroke="#38bdf8" stroke-opacity="0.3" stroke-width="6">
    <circle cx="560" cy="170" r="28" />
    <circle cx="610" cy="150" r="16" />
  </g>
  <g fill="#38bdf8" fill-opacity="0.9">
    <path d="M250 180c-12 0-22 10-22 22v138c0 12 10 22 22 22s22-10 22-22v-44l56-18v62c0 12 10 22 22 22s22-10 22-22V200c0-12-10-22-22-22s-22 10-22 22v42l-56 18v-60c0-12-10-22-22-22z" />
    <path d="M470 188c-12 0-22 10-22 22v130c0 12 10 22 22 22s22-10 22-22v-32l44-12c10-3 16-11 16-22v-62c0-12-10-22-22-22s-22 10-22 22v46l-38 10v-58c0-12-10-22-22-22z" />
  </g>
  <g>
    <circle cx="150" cy="186" r="22" fill="#22d3ee" fill-opacity="0.35" />
    <circle cx="170" cy="174" r="10" fill="#22d3ee" fill-opacity="0.55" />
    <circle cx="136" cy="202" r="8" fill="#38bdf8" fill-opacity="0.55" />
  </g>
  <g>
    <circle cx="420" cy="410" r="64" fill="#0b1729" stroke="#1f2937" stroke-width="4" />
    <circle cx="420" cy="410" r="44" fill="url(#disc)" opacity="0.85" />
    <circle cx="420" cy="410" r="8" fill="#0b1729" />
  </g>
  <g fill="#cbd5e1" fill-opacity="0.65">
    <rect x="96" y="360" width="140" height="10" rx="5" />
    <rect x="96" y="380" width="100" height="10" rx="5" />
    <rect x="96" y="400" width="80" height="10" rx="5" />
  </g>
</svg>
