<svg xmlns="http://www.w3.org/2000/svg" xmlns:xlink="http://www.w3.org/1999/xlink" width="500" zoomAndPan="magnify" viewBox="0 0 375 374.999991" height="500" preserveAspectRatio="xMidYMid meet" version="1.0"><defs><clipPath id="779c26a1b9"><path d="M 37.5 18 L 170 18 L 170 356.847656 L 37.5 356.847656 Z M 37.5 18 " clip-rule="nonzero"/></clipPath><clipPath id="7273c85cee"><path d="M 139 28 L 342.75 28 L 342.75 341 L 139 341 Z M 139 28 " clip-rule="nonzero"/></clipPath><clipPath id="af38a22c94"><path d="M 37.5 64.625 L 105 64.625 L 105 155.375 L 37.5 155.375 Z M 37.5 64.625 " clip-rule="nonzero"/></clipPath></defs><g clip-path="url(#779c26a1b9)"><path fill="#0cc0df" d="M 169.996094 319.710938 L 105.214844 356.984375 L 37.523438 318.039062 L 37.523438 56.960938 L 105.214844 18.015625 L 105.214844 282.453125 Z M 169.996094 319.710938 " fill-opacity="1" fill-rule="nonzero"/></g><g clip-path="url(#7273c85cee)"><path fill="#0097b2" d="M 342.902344 145.359375 L 342.902344 220.867188 L 271.464844 261.972656 L 342.71875 302.953125 L 277.9375 340.230469 L 141.921875 261.972656 L 278.976562 183.101562 L 207.007812 141.710938 L 207.007812 182.066406 L 139.316406 221.011719 L 139.316406 28.214844 Z M 342.902344 145.359375 " fill-opacity="1" fill-rule="nonzero"/></g><g clip-path="url(#af38a22c94)"><path fill="#0cc0df" d="M 76.253906 88.847656 L 76.253906 64.625 L 66.5625 64.625 L 66.5625 88.847656 C 66.5625 89.734375 65.839844 90.460938 64.949219 90.460938 L 37.5 90.460938 L 37.5 100.148438 L 64.949219 100.148438 C 65.839844 100.148438 66.5625 100.875 66.5625 101.765625 L 66.5625 155.046875 L 76.253906 155.046875 L 76.253906 101.765625 C 76.253906 100.875 76.976562 100.148438 77.867188 100.148438 L 105.316406 100.148438 L 105.316406 90.460938 L 77.867188 90.460938 C 76.976562 90.460938 76.253906 89.734375 76.253906 88.847656 " fill-opacity="1" fill-rule="nonzero"/></g></svg>